<?xml version="1.0" encoding="utf-8"?>
<!-- Generator: Adobe Illustrator 27.9.0, SVG Export Plug-In . SVG Version: 6.00 Build 0)  -->
<svg version="1.1" id="Layer_1" xmlns="http://www.w3.org/2000/svg" xmlns:xlink="http://www.w3.org/1999/xlink" x="0px" y="0px"
	 viewBox="0 0 150 150" style="enable-background:new 0 0 150 150;" xml:space="preserve">
<style type="text/css">
	.st0{fill:#919190;}
	.st1{fill:#1ABBE1;}
</style>
<g>
	<g>
		<path class="st0" d="M44.12,28.84c-2.07,8.73-5.25,22.2-7.1,30.34c-1.68,7.39-3.33,14.78-5.04,22.36c9.53,0,18.79,0,28.14,0
			c0.16-0.56,0.34-1.09,0.47-1.63c7.01-30.85,13.01-59.44,13.01-59.44l-27.47-0.09C46.13,20.38,45.3,23.83,44.12,28.84z
			 M92.75,72.37c-3.73,16.46-7.44,32.92-11.18,49.37C81.03,124.15,80,129,80,129l28.13-0.02c0,0,6.96-30.6,10.44-45.9
			c0.91-3.99,1.81-7.97,2.74-12.08c-9.47,0-18.73,0-28.14,0C93.01,71.52,92.85,71.94,92.75,72.37z M104.83,20l-4.54,19.5h27.99
			c0,0,2.54-10.17,3.11-12.82c0.5-2.29,1.3-6.67,1.3-6.67L104.83,20z M21.99,124.7c-0.24,1.1-0.7,3.29-0.7,3.29l28.15,0.1
			l3.77-16.01H24.9C24.9,112.08,22.54,122.17,21.99,124.7z"/>
	</g>
</g>
<g>
	<g>
		<path class="st1" d="M75.28,39.22c-0.56,0-1.13,0.05-1.85,0.08c-2.06,9.07-4.11,18.1-6.22,27.37c1.02,0,1.72,0,2.41,0
			c15.62,0,31.24,0,46.85,0c2.88,0,6.7,0,10.54,0c13.15,0,17.55-6.02,20.34-20.03c0.85-4.27,1.7-7.46,1.7-7.46
			S99.87,39.22,75.28,39.22z M25.91,84.98c-12.88,0-19.05,1.44-23.43,20.54c-0.88,3.84-1.52,6.68-1.52,6.68s1.66,0.21,2.53,0.21
			c24.84,0.07,49.68,0.02,74.52,0.06c1.2,0,1.68-0.41,1.9-1.53c0.52-2.6,1.14-5.18,1.73-7.77c1.35-5.97,2.7-11.94,4.1-18.13
			c-0.72-0.03-1.16-0.07-1.6-0.07C68.44,84.97,43.18,84.98,25.91,84.98z M115.58,112.39c1.08,0,2.48,0,4.02,0
			c11.55,0,14.28-6.26,17.43-19.77c1.04-4.46,1.79-7.92,1.79-7.92l-16.94-0.04C121.88,84.65,117.68,103.14,115.58,112.39z
			 M35.27,48.64c0.69-3.06,2.08-9.4,2.08-9.4s-1.96,0-4.66,0c-11.46,0-16.12,2.86-20.35,22.21c-0.67,3.08-1.14,5.22-1.14,5.22
			l20.01,0.02C31.21,66.69,32.77,59.69,35.27,48.64z"/>
	</g>
</g>
</svg>
